<?xml version="1.0" encoding="us-ascii" standalone="no"?><svg xmlns="http://www.w3.org/2000/svg" xmlns:xlink="http://www.w3.org/1999/xlink" contentStyleType="text/css" height="1111px" preserveAspectRatio="none" style="width:753px;height:1111px;background:#FFFFFF;" version="1.1" viewBox="0 0 753 1111" width="753px" zoomAndPan="magnify"><defs/><g><text fill="#000000" font-family="sans-serif" font-size="14" font-weight="bold" lengthAdjust="spacing" textLength="446" x="149.5" y="29.5332">Rys. 4.5a. Diagram sekwencji - oddanie rozwi&#261;zania przez ucznia</text><rect fill="none" height="114.1094" style="stroke:#000000;stroke-width:1.5;" width="354" x="382" y="803.7109"/><line style="stroke:#181818;stroke-width:0.5;stroke-dasharray:5.0,5.0;" x1="27" x2="27" y1="121.2188" y2="1104.2813"/><line style="stroke:#181818;stroke-width:0.5;stroke-dasharray:5.0,5.0;" x1="148" x2="148" y1="121.2188" y2="1104.2813"/><line style="stroke:#181818;stroke-width:0.5;stroke-dasharray:5.0,5.0;" x1="314" x2="314" y1="121.2188" y2="1104.2813"/><line style="stroke:#181818;stroke-width:0.5;stroke-dasharray:5.0,5.0;" x1="481" x2="481" y1="121.2188" y2="1104.2813"/><line style="stroke:#181818;stroke-width:0.5;stroke-dasharray:5.0,5.0;" x1="653" x2="653" y1="121.2188" y2="1104.2813"/><text fill="#000000" font-family="sans-serif" font-size="14" lengthAdjust="spacing" textLength="38" x="5" y="118.1426">Ucze&#324;</text><ellipse cx="27" cy="52.1094" fill="#E2E2F0" rx="8" ry="8" style="stroke:#181818;stroke-width:0.5;"/><path d="M27,60.1094 L27,87.1094 M14,68.1094 L40,68.1094 M27,87.1094 L14,102.1094 M27,87.1094 L40,102.1094 " fill="none" style="stroke:#181818;stroke-width:0.5;"/><rect fill="#E2E2F0" height="49.2188" rx="2.5" ry="2.5" style="stroke:#181818;stroke-width:0.5;" width="158" x="69" y="71"/><text fill="#000000" font-family="sans-serif" font-size="14" lengthAdjust="spacing" textLength="58" x="119" y="92.5332">Frontend</text><text fill="#000000" font-family="sans-serif" font-size="14" lengthAdjust="spacing" textLength="144" x="76" y="110.1426">(StudentHomework.jsx)</text><rect fill="#E2E2F0" height="49.2188" rx="2.5" ry="2.5" style="stroke:#181818;stroke-width:0.5;" width="115" x="257" y="71"/><text fill="#000000" font-family="sans-serif" font-size="14" lengthAdjust="spacing" textLength="58" x="285.5" y="92.5332">API client</text><text fill="#000000" font-family="sans-serif" font-size="14" lengthAdjust="spacing" textLength="101" x="264" y="110.1426">(apiPost/apiPut)</text><rect fill="#E2E2F0" height="49.2188" rx="2.5" ry="2.5" style="stroke:#181818;stroke-width:0.5;" width="158" x="402" y="71"/><text fill="#000000" font-family="sans-serif" font-size="14" lengthAdjust="spacing" textLength="55" x="453.5" y="92.5332">Backend</text><text fill="#000000" font-family="sans-serif" font-size="14" lengthAdjust="spacing" textLength="144" x="409" y="110.1426">(SubmissionController)</text><text fill="#000000" font-family="sans-serif" font-size="14" lengthAdjust="spacing" textLength="140" x="580" y="118.1426">SubmissionRepository</text><path d="M635,67.6094 C635,57.6094 653,57.6094 653,57.6094 C653,57.6094 671,57.6094 671,67.6094 L671,93.6094 C671,103.6094 653,103.6094 653,103.6094 C653,103.6094 635,103.6094 635,93.6094 L635,67.6094 " fill="#E2E2F0" style="stroke:#181818;stroke-width:1.5;"/><path d="M635,67.6094 C635,77.6094 653,77.6094 653,77.6094 C653,77.6094 671,77.6094 671,67.6094 " fill="none" style="stroke:#181818;stroke-width:1.5;"/><rect fill="#EEEEEE" height="3" style="stroke:#EEEEEE;stroke-width:1.0;" width="746" x="0" y="152.3945"/><line style="stroke:#000000;stroke-width:1.0;" x1="0" x2="746" y1="152.3945" y2="152.3945"/><line style="stroke:#000000;stroke-width:1.0;" x1="0" x2="746" y1="155.3945" y2="155.3945"/><rect fill="#EEEEEE" height="24.3516" style="stroke:#000000;stroke-width:2.0;" width="99" x="323.5" y="141.2188"/><text fill="#000000" font-family="sans-serif" font-size="13" font-weight="bold" lengthAdjust="spacing" textLength="81" x="329.5" y="158.7139">Rozpocz&#281;cie</text><polygon fill="#181818" points="136,210.2734,146,214.2734,136,218.2734,140,214.2734" style="stroke:#181818;stroke-width:1.0;"/><line style="stroke:#181818;stroke-width:1.0;" x1="27" x2="142" y1="214.2734" y2="214.2734"/><text fill="#000000" font-family="sans-serif" font-size="13" lengthAdjust="spacing" textLength="20" x="34" y="193.0654">klik</text><text fill="#000000" font-family="sans-serif" font-size="13" lengthAdjust="spacing" textLength="38" x="34" y="209.417">"Start"</text><polygon fill="#181818" points="302.5,289.6797,312.5,293.6797,302.5,297.6797,306.5,293.6797" style="stroke:#181818;stroke-width:1.0;"/><line style="stroke:#181818;stroke-width:1.0;" x1="148" x2="308.5" y1="293.6797" y2="293.6797"/><text fill="#000000" font-family="sans-serif" font-size="13" lengthAdjust="spacing" textLength="35" x="155" y="239.7686">POST</text><text fill="#000000" font-family="sans-serif" font-size="13" lengthAdjust="spacing" textLength="128" x="155" y="256.1201">/api/submissions/start</text><text fill="#000000" font-family="sans-serif" font-size="13" lengthAdjust="spacing" textLength="85" x="155" y="272.4717">{assignmentId,</text><text fill="#000000" font-family="sans-serif" font-size="13" lengthAdjust="spacing" textLength="57" x="155" y="288.8232">studentId}</text><polygon fill="#181818" points="469,320.0313,479,324.0313,469,328.0313,473,324.0313" style="stroke:#181818;stroke-width:1.0;"/><line style="stroke:#181818;stroke-width:1.0;" x1="314.5" x2="475" y1="324.0313" y2="324.0313"/><text fill="#000000" font-family="sans-serif" font-size="13" lengthAdjust="spacing" textLength="52" x="321.5" y="319.1748">start(req)</text><polygon fill="#181818" points="641,350.3828,651,354.3828,641,358.3828,645,354.3828" style="stroke:#181818;stroke-width:1.0;"/><line style="stroke:#181818;stroke-width:1.0;" x1="481" x2="647" y1="354.3828" y2="354.3828"/><text fill="#000000" font-family="sans-serif" font-size="13" lengthAdjust="spacing" textLength="120" x="488" y="349.5264">save(status=DRAFT)</text><polygon fill="#181818" points="492,380.7344,482,384.7344,492,388.7344,488,384.7344" style="stroke:#181818;stroke-width:1.0;"/><line style="stroke:#181818;stroke-width:1.0;stroke-dasharray:2.0,2.0;" x1="486" x2="652" y1="384.7344" y2="384.7344"/><text fill="#000000" font-family="sans-serif" font-size="13" lengthAdjust="spacing" textLength="76" x="498" y="379.8779">submissionId</text><polygon fill="#181818" points="325.5,427.4375,315.5,431.4375,325.5,435.4375,321.5,431.4375" style="stroke:#181818;stroke-width:1.0;"/><line style="stroke:#181818;stroke-width:1.0;stroke-dasharray:2.0,2.0;" x1="319.5" x2="480" y1="431.4375" y2="431.4375"/><text fill="#000000" font-family="sans-serif" font-size="13" lengthAdjust="spacing" textLength="21" x="331.5" y="410.2295">200</text><text fill="#000000" font-family="sans-serif" font-size="13" lengthAdjust="spacing" textLength="18" x="331.5" y="426.5811">(id)</text><polygon fill="#181818" points="159,457.7891,149,461.7891,159,465.7891,155,461.7891" style="stroke:#181818;stroke-width:1.0;"/><line style="stroke:#181818;stroke-width:1.0;stroke-dasharray:2.0,2.0;" x1="153" x2="313.5" y1="461.7891" y2="461.7891"/><text fill="#000000" font-family="sans-serif" font-size="13" lengthAdjust="spacing" textLength="10" x="165" y="456.9326">id</text><rect fill="#EEEEEE" height="3" style="stroke:#EEEEEE;stroke-width:1.0;" width="746" x="0" y="490.9648"/><line style="stroke:#000000;stroke-width:1.0;" x1="0" x2="746" y1="490.9648" y2="490.9648"/><line style="stroke:#000000;stroke-width:1.0;" x1="0" x2="746" y1="493.9648" y2="493.9648"/><rect fill="#EEEEEE" height="24.3516" style="stroke:#000000;stroke-width:2.0;" width="72" x="337" y="479.7891"/><text fill="#000000" font-family="sans-serif" font-size="13" font-weight="bold" lengthAdjust="spacing" textLength="54" x="343" y="497.2842">Oddanie</text><polygon fill="#181818" points="136,581.5469,146,585.5469,136,589.5469,140,585.5469" style="stroke:#181818;stroke-width:1.0;"/><line style="stroke:#181818;stroke-width:1.0;" x1="27" x2="142" y1="585.5469" y2="585.5469"/><text fill="#000000" font-family="sans-serif" font-size="13" lengthAdjust="spacing" textLength="55" x="34" y="531.6357">uzupe&#322;nia</text><text fill="#000000" font-family="sans-serif" font-size="13" lengthAdjust="spacing" textLength="64" x="34" y="547.9873">odpowiedzi</text><text fill="#000000" font-family="sans-serif" font-size="13" lengthAdjust="spacing" textLength="20" x="34" y="564.3389">klik</text><text fill="#000000" font-family="sans-serif" font-size="13" lengthAdjust="spacing" textLength="46" x="34" y="580.6904">"Wy&#347;lij"</text><polygon fill="#181818" points="302.5,660.9531,312.5,664.9531,302.5,668.9531,306.5,664.9531" style="stroke:#181818;stroke-width:1.0;"/><line style="stroke:#181818;stroke-width:1.0;" x1="148" x2="308.5" y1="664.9531" y2="664.9531"/><text fill="#000000" font-family="sans-serif" font-size="13" lengthAdjust="spacing" textLength="25" x="155" y="611.042">PUT</text><text fill="#000000" font-family="sans-serif" font-size="13" lengthAdjust="spacing" textLength="120" x="155" y="627.3936">/api/submissions/{id}</text><text fill="#000000" font-family="sans-serif" font-size="13" lengthAdjust="spacing" textLength="125" x="155" y="643.7451">{status=SUBMITTED,</text><text fill="#000000" font-family="sans-serif" font-size="13" lengthAdjust="spacing" textLength="69" x="155" y="660.0967">textAnswer}</text><polygon fill="#181818" points="469,707.6563,479,711.6563,469,715.6563,473,711.6563" style="stroke:#181818;stroke-width:1.0;"/><line style="stroke:#181818;stroke-width:1.0;" x1="314.5" x2="475" y1="711.6563" y2="711.6563"/><text fill="#000000" font-family="sans-serif" font-size="13" lengthAdjust="spacing" textLength="57" x="321.5" y="690.4482">update(id,</text><text fill="#000000" font-family="sans-serif" font-size="13" lengthAdjust="spacing" textLength="32" x="321.5" y="706.7998">body)</text><polygon fill="#181818" points="641,754.3594,651,758.3594,641,762.3594,645,758.3594" style="stroke:#181818;stroke-width:1.0;"/><line style="stroke:#181818;stroke-width:1.0;" x1="481" x2="647" y1="758.3594" y2="758.3594"/><text fill="#000000" font-family="sans-serif" font-size="13" lengthAdjust="spacing" textLength="83" x="488" y="737.1514">update(status,</text><text fill="#000000" font-family="sans-serif" font-size="13" lengthAdjust="spacing" textLength="69" x="488" y="753.5029">textAnswer)</text><polygon fill="#181818" points="492,784.7109,482,788.7109,492,792.7109,488,788.7109" style="stroke:#181818;stroke-width:1.0;"/><line style="stroke:#181818;stroke-width:1.0;stroke-dasharray:2.0,2.0;" x1="486" x2="652" y1="788.7109" y2="788.7109"/><text fill="#000000" font-family="sans-serif" font-size="13" lengthAdjust="spacing" textLength="19" x="498" y="783.8545">OK</text><path d="M382,803.7109 L443,803.7109 L443,812.0625 L433,822.0625 L382,822.0625 L382,803.7109 " fill="#EEEEEE" style="stroke:#000000;stroke-width:1.5;"/><rect fill="none" height="114.1094" style="stroke:#000000;stroke-width:1.5;" width="354" x="382" y="803.7109"/><text fill="#000000" font-family="sans-serif" font-size="13" font-weight="bold" lengthAdjust="spacing" textLength="16" x="397" y="818.2061">alt</text><text fill="#000000" font-family="sans-serif" font-size="11" font-weight="bold" lengthAdjust="spacing" textLength="78" x="458" y="817.1299">[termin min&#261;&#322;]</text><polygon fill="#181818" points="641,905.8203,651,909.8203,641,913.8203,645,909.8203" style="stroke:#181818;stroke-width:1.0;"/><line style="stroke:#181818;stroke-width:1.0;" x1="481" x2="647" y1="909.8203" y2="909.8203"/><text fill="#000000" font-family="sans-serif" font-size="13" lengthAdjust="spacing" textLength="42" x="488" y="839.5576">oznacz</text><text fill="#000000" font-family="sans-serif" font-size="13" lengthAdjust="spacing" textLength="62" x="488" y="855.9092">sp&#243;&#378;nienie</text><text fill="#000000" font-family="sans-serif" font-size="13" lengthAdjust="spacing" textLength="64" x="488" y="872.2607">(flag/status</text><text fill="#000000" font-family="sans-serif" font-size="13" lengthAdjust="spacing" textLength="16" x="488" y="888.6123">wg</text><text fill="#000000" font-family="sans-serif" font-size="13" lengthAdjust="spacing" textLength="34" x="488" y="904.9639">logiki)</text><polygon fill="#181818" points="325.5,959.5234,315.5,963.5234,325.5,967.5234,321.5,963.5234" style="stroke:#181818;stroke-width:1.0;"/><line style="stroke:#181818;stroke-width:1.0;stroke-dasharray:2.0,2.0;" x1="319.5" x2="480" y1="963.5234" y2="963.5234"/><text fill="#000000" font-family="sans-serif" font-size="13" lengthAdjust="spacing" textLength="21" x="331.5" y="942.3154">200</text><text fill="#000000" font-family="sans-serif" font-size="13" lengthAdjust="spacing" textLength="81" x="331.5" y="958.667">(SUBMITTED)</text><polygon fill="#181818" points="159,989.875,149,993.875,159,997.875,155,993.875" style="stroke:#181818;stroke-width:1.0;"/><line style="stroke:#181818;stroke-width:1.0;stroke-dasharray:2.0,2.0;" x1="153" x2="313.5" y1="993.875" y2="993.875"/><text fill="#000000" font-family="sans-serif" font-size="13" lengthAdjust="spacing" textLength="33" x="165" y="989.0186">wynik</text><line style="stroke:#181818;stroke-width:1.0;" x1="148" x2="190" y1="1073.2813" y2="1073.2813"/><line style="stroke:#181818;stroke-width:1.0;" x1="190" x2="190" y1="1073.2813" y2="1086.2813"/><line style="stroke:#181818;stroke-width:1.0;" x1="149" x2="190" y1="1086.2813" y2="1086.2813"/><polygon fill="#181818" points="159,1082.2813,149,1086.2813,159,1090.2813,155,1086.2813" style="stroke:#181818;stroke-width:1.0;"/><text fill="#000000" font-family="sans-serif" font-size="13" lengthAdjust="spacing" textLength="45" x="155" y="1019.3701">blokada</text><text fill="#000000" font-family="sans-serif" font-size="13" lengthAdjust="spacing" textLength="34" x="155" y="1035.7217">edycji</text><text fill="#000000" font-family="sans-serif" font-size="13" lengthAdjust="spacing" textLength="8" x="155" y="1052.0732">+</text><text fill="#000000" font-family="sans-serif" font-size="13" lengthAdjust="spacing" textLength="60" x="155" y="1068.4248">komunikat</text><!--SRC=[RPFDRjf04CVl-nGZJg26ZtvTaAYKXA2YAWh2HBrm6RmRTx2zwthNDMoKIvGyHDN7wAtNmdjrR2W9KIHRgvsP_ypyncD7Bb4mNTiEVEXyn0uC2QCSKx0gBfKEbmHjC5AY9WMvyILj7ZrV4BBSAmz5wFaYn3UI2cwCSGkp4ZOcdM6L9SNLfR8M8nMGL_2-zymtmTnHI1bgDq4fIKVmjYS4Xixa401QQ5o7NcqV6Y9x2eNHHUqQvKOxfULSDmDNIANTPvEgqkHnPsbNhMFDwMHSYwepJ8Y3MOOPJOnrtUeit0j5S5uBpZ2CzqMAHKhMaj7dN3WtIQ9oraXqk42hO7XM2vx2fYepbfXbtH1YC82fyPa9_UPdo9CS34G0xKyLJ1_YX69MEYxV46nXUzLe7oPNmGog_hhsaDPsRHKurxV8zqYd33EM9s1tGnZBEr69EGSZzA4ERkRgUqlmdQtS9rlnXsgoonLsC9oUZcOjmVRsGNIeDfQrxD3HkruFcYHRknh_0KZMX5VxDJc2AtoHgUrzjJ56PgOa9JtDzOxvwthxAw7b2-hhLw1lITunyxxduFhiSZoRNGnFmAcLEzMsLFanU97nfr7SwmaiZ5mVuUzzksJFKnoFuUeBRsFYs9-df87VpUFsNW0yIsMynj23pVx-tlvXU7vuMMuIZBgxz516a9Y8Oce9tYJnoZmFD2_6MgurnVlHr8P5OcAK24gk-SUSwpSGcxJW87J_0000]--></g></svg>